<svg width="12" height="12" viewBox="0 0 12 12" fill="none" xmlns="http://www.w3.org/2000/svg">
<path d="M5.99996 11.8333C2.77821 11.8333 0.166626 9.22176 0.166626 6.00001C0.166626 2.77826 2.77821 0.166672 5.99996 0.166672C9.22171 0.166672 11.8333 2.77826 11.8333 6.00001C11.8333 9.22176 9.22171 11.8333 5.99996 11.8333ZM5.99996 10.6667C7.23764 10.6667 8.42462 10.175 9.29979 9.29984C10.175 8.42467 10.6666 7.23768 10.6666 6.00001C10.6666 4.76233 10.175 3.57534 9.29979 2.70017C8.42462 1.825 7.23764 1.33334 5.99996 1.33334C4.76228 1.33334 3.5753 1.825 2.70013 2.70017C1.82496 3.57534 1.33329 4.76233 1.33329 6.00001C1.33329 7.23768 1.82496 8.42467 2.70013 9.29984C3.5753 10.175 4.76228 10.6667 5.99996 10.6667V10.6667ZM5.41838 8.33334L2.94329 5.85826L3.76813 5.03342L5.41838 6.68367L8.71771 3.38376L9.54313 4.20859L5.41838 8.33334Z" fill="#0AB39C"/>
</svg>
