<svg width="16" height="15" viewBox="0 0 16 15" fill="none" xmlns="http://www.w3.org/2000/svg">
<path d="M8 15C3.85775 15 0.5 11.6423 0.5 7.5C0.5 3.35775 3.85775 0 8 0C12.1423 0 15.5 3.35775 15.5 7.5C15.5 11.6423 12.1423 15 8 15ZM6.2825 13.2503C5.54256 11.6807 5.1139 9.98266 5.02025 8.25H2.0465C2.19244 9.40417 2.67044 10.4911 3.42243 11.3788C4.17441 12.2664 5.16801 12.9166 6.2825 13.2503V13.2503ZM6.5225 8.25C6.63575 10.0793 7.1585 11.7975 8 13.314C8.86424 11.7574 9.36908 10.0271 9.4775 8.25H6.5225V8.25ZM13.9535 8.25H10.9798C10.8861 9.98266 10.4574 11.6807 9.7175 13.2503C10.832 12.9166 11.8256 12.2664 12.5776 11.3788C13.3296 10.4911 13.8076 9.40417 13.9535 8.25V8.25ZM2.0465 6.75H5.02025C5.1139 5.01734 5.54256 3.31926 6.2825 1.74975C5.16801 2.08341 4.17441 2.73356 3.42243 3.62122C2.67044 4.50888 2.19244 5.59583 2.0465 6.75V6.75ZM6.52325 6.75H9.47675C9.36856 4.97295 8.86398 3.24265 8 1.686C7.13576 3.24259 6.63092 4.97289 6.5225 6.75H6.52325ZM9.7175 1.74975C10.4574 3.31926 10.8861 5.01734 10.9798 6.75H13.9535C13.8076 5.59583 13.3296 4.50888 12.5776 3.62122C11.8256 2.73356 10.832 2.08341 9.7175 1.74975V1.74975Z" fill="#BDB4FE"/>
</svg>
