<svg width="16" height="15" viewBox="0 0 16 15" fill="none" xmlns="http://www.w3.org/2000/svg">
<path d="M8.3105 2.25H14.75C14.9489 2.25 15.1397 2.32902 15.2803 2.46967C15.421 2.61032 15.5 2.80109 15.5 3V13.5C15.5 13.6989 15.421 13.8897 15.2803 14.0303C15.1397 14.171 14.9489 14.25 14.75 14.25H1.25C1.05109 14.25 0.860322 14.171 0.71967 14.0303C0.579018 13.8897 0.5 13.6989 0.5 13.5V1.5C0.5 1.30109 0.579018 1.11032 0.71967 0.96967C0.860322 0.829018 1.05109 0.75 1.25 0.75H6.8105L8.3105 2.25ZM14 6.75H2V12.75H14V6.75ZM14 5.25V3.75H7.6895L6.1895 2.25H2V5.25H14Z" fill="#BDB4FE"/>
</svg>
