<svg width="17" height="16" viewBox="0 0 17 16" fill="none" xmlns="http://www.w3.org/2000/svg">
<path d="M0.5 16C0.5 14.4087 1.13214 12.8826 2.25736 11.7574C3.38258 10.6321 4.9087 10 6.5 10C8.0913 10 9.61742 10.6321 10.7426 11.7574C11.8679 12.8826 12.5 14.4087 12.5 16H11C11 14.8065 10.5259 13.6619 9.68198 12.818C8.83807 11.9741 7.69347 11.5 6.5 11.5C5.30653 11.5 4.16193 11.9741 3.31802 12.818C2.47411 13.6619 2 14.8065 2 16H0.5ZM6.5 9.25C4.01375 9.25 2 7.23625 2 4.75C2 2.26375 4.01375 0.25 6.5 0.25C8.98625 0.25 11 2.26375 11 4.75C11 7.23625 8.98625 9.25 6.5 9.25ZM6.5 7.75C8.1575 7.75 9.5 6.4075 9.5 4.75C9.5 3.0925 8.1575 1.75 6.5 1.75C4.8425 1.75 3.5 3.0925 3.5 4.75C3.5 6.4075 4.8425 7.75 6.5 7.75ZM12.713 10.5273C13.767 11.0019 14.6615 11.7709 15.2889 12.7418C15.9164 13.7126 16.2501 14.844 16.25 16H14.75C14.7502 15.133 14.4999 14.2844 14.0293 13.5562C13.5587 12.828 12.8878 12.2512 12.0973 11.8953L12.7123 10.5273H12.713ZM12.197 2.05975C12.9526 2.37122 13.5987 2.90015 14.0533 3.57942C14.5078 4.25869 14.7503 5.05768 14.75 5.875C14.7503 6.90425 14.3658 7.89642 13.6719 8.65662C12.978 9.41682 12.025 9.8901 11 9.9835V8.47375C11.5557 8.39416 12.0713 8.13852 12.471 7.74434C12.8707 7.35017 13.1335 6.83824 13.2209 6.2837C13.3082 5.72916 13.2155 5.16122 12.9563 4.66327C12.6971 4.16531 12.2851 3.76356 11.7808 3.517L12.197 2.05975V2.05975Z" fill="#BDB4FE"/>
</svg>
