<svg width="17" height="14" viewBox="0 0 17 14" fill="none" xmlns="http://www.w3.org/2000/svg">
<path d="M0.385742 7C1.09074 3.16 4.45599 0.25 8.49999 0.25C12.544 0.25 15.9085 3.16 16.6142 7C15.9092 10.84 12.544 13.75 8.49999 13.75C4.45599 13.75 1.09149 10.84 0.385742 7V7ZM8.49999 10.75C9.49455 10.75 10.4484 10.3549 11.1516 9.65165C11.8549 8.94839 12.25 7.99456 12.25 7C12.25 6.00544 11.8549 5.05161 11.1516 4.34835C10.4484 3.64509 9.49455 3.25 8.49999 3.25C7.50543 3.25 6.5516 3.64509 5.84834 4.34835C5.14508 5.05161 4.74999 6.00544 4.74999 7C4.74999 7.99456 5.14508 8.94839 5.84834 9.65165C6.5516 10.3549 7.50543 10.75 8.49999 10.75ZM8.49999 9.25C7.90325 9.25 7.33096 9.01295 6.909 8.59099C6.48704 8.16903 6.24999 7.59674 6.24999 7C6.24999 6.40326 6.48704 5.83097 6.909 5.40901C7.33096 4.98705 7.90325 4.75 8.49999 4.75C9.09673 4.75 9.66903 4.98705 10.091 5.40901C10.5129 5.83097 10.75 6.40326 10.75 7C10.75 7.59674 10.5129 8.16903 10.091 8.59099C9.66903 9.01295 9.09673 9.25 8.49999 9.25Z" fill="#6455A2"/>
</svg>
