<svg width="18" height="15" viewBox="0 0 18 15" fill="none" xmlns="http://www.w3.org/2000/svg">
<path d="M12 10.5V0.75H0.75V10.5H12ZM12 10.5H17.25V6.75L15 4.5H12V10.5ZM6 12.375C6 13.4105 5.16053 14.25 4.125 14.25C3.08947 14.25 2.25 13.4105 2.25 12.375C2.25 11.3395 3.08947 10.5 4.125 10.5C5.16053 10.5 6 11.3395 6 12.375ZM15.75 12.375C15.75 13.4105 14.9105 14.25 13.875 14.25C12.8395 14.25 12 13.4105 12 12.375C12 11.3395 12.8395 10.5 13.875 10.5C14.9105 10.5 15.75 11.3395 15.75 12.375Z" stroke="#BDB4FE" stroke-width="1.2" stroke-linecap="round" stroke-linejoin="round"/>
</svg>
