<svg width="18" height="15" viewBox="0 0 18 15" fill="none" xmlns="http://www.w3.org/2000/svg">
<path d="M2.37072 1.85175C3.24077 0.981547 4.40772 0.472566 5.63742 0.426939C6.86712 0.381312 8.06858 0.802415 9.00072 1.60575C9.93204 0.803754 11.1319 0.383124 12.3601 0.428073C13.5884 0.473021 14.7543 0.98023 15.6245 1.84816C16.4947 2.71608 17.0049 3.88067 17.0531 5.10877C17.1013 6.33687 16.6838 7.53784 15.8842 8.47125L10.0605 14.3138C9.79291 14.5814 9.43405 14.738 9.05586 14.7522C8.67767 14.7664 8.30809 14.6371 8.02122 14.3903L7.93872 14.3145L2.11572 8.47125C1.31659 7.53865 0.898906 6.33878 0.946182 5.11154C0.993459 3.88429 1.50221 2.72011 2.37072 1.85175V1.85175ZM3.43122 2.91225C2.8179 3.52574 2.46436 4.35183 2.44397 5.21908C2.42358 6.08632 2.73791 6.92812 3.32172 7.56975L3.43122 7.68525L8.99997 13.254L12.9772 9.276L10.326 6.62475L9.53097 7.41975C9.32207 7.62875 9.07405 7.79456 8.80107 7.9077C8.52809 8.02085 8.2355 8.07912 7.94 8.07919C7.34321 8.07933 6.77081 7.84239 6.34872 7.4205C5.92663 6.99861 5.68942 6.42632 5.68928 5.82953C5.68914 5.23274 5.92608 4.66034 6.34797 4.23825L7.92447 2.661C7.29707 2.16028 6.51178 1.89952 5.70949 1.9255C4.90719 1.95147 4.14041 2.26249 3.54672 2.80275L3.43122 2.91225V2.91225ZM9.79572 5.03325C9.93637 4.89265 10.1271 4.81366 10.326 4.81366C10.5248 4.81366 10.7156 4.89265 10.8562 5.03325L14.0377 8.21475L14.5687 7.68525C15.1923 7.0621 15.5473 6.21969 15.5578 5.33817C15.5684 4.45666 15.2335 3.60601 14.625 2.96817C14.0164 2.33032 13.1825 1.9559 12.3014 1.92499C11.4204 1.89408 10.5622 2.20912 9.91047 2.80275L9.79572 2.91225L7.40922 5.29875C7.27922 5.42866 7.20145 5.60178 7.19067 5.78525C7.17988 5.96872 7.23684 6.14976 7.35072 6.294L7.40922 6.35925C7.53913 6.48925 7.71225 6.56702 7.89572 6.57781C8.07919 6.58859 8.26023 6.53163 8.40447 6.41775L8.46972 6.35925L9.79572 5.03325V5.03325Z" fill="#BDB4FE"/>
</svg>
