<svg width="18" height="18" viewBox="0 0 18 18" fill="none" xmlns="http://www.w3.org/2000/svg">
<path d="M14.4001 5.98333C14.1869 5.63293 13.8851 5.34492 13.5251 5.14833L10.1334 3.2525C9.78555 3.0636 9.39597 2.96465 9.00011 2.96465C8.60424 2.96465 8.21466 3.0636 7.86677 3.2525L4.47511 5.14833C4.11501 5.34515 3.8132 5.63346 3.60011 5.98417C3.39177 6.34417 3.2826 6.75417 3.28344 7.17V10.8292C3.2826 11.2458 3.39177 11.655 3.60011 12.0158C3.81094 12.3683 4.11344 12.6575 4.47511 12.8508L7.86677 14.7392C8.21394 14.9303 8.60381 15.0305 9.00011 15.0305C9.39641 15.0305 9.78627 14.9303 10.1334 14.7392L13.5251 12.8508C13.8868 12.6567 14.1893 12.3675 14.4001 12.0158C14.6076 11.6575 14.7168 11.2517 14.7168 10.8375V7.20417C14.7239 6.7763 14.6144 6.35374 14.4001 5.98333ZM13.4668 10.8383C13.4668 11.0292 13.4184 11.2158 13.3251 11.3817C13.2259 11.5483 13.0851 11.6875 12.9168 11.7825L9.62511 13.6125V9.35833L13.4584 7.04417C13.4623 7.08583 13.4623 7.1275 13.4584 7.16917L13.4668 10.8383ZM16.7084 6.1925C16.6263 6.1925 16.545 6.17631 16.4691 6.14485C16.3932 6.11338 16.3243 6.06727 16.2662 6.00915C16.2082 5.95102 16.1621 5.88202 16.1308 5.8061C16.0994 5.73018 16.0833 5.64881 16.0834 5.56667V3.89583C16.085 3.63988 16.0357 3.38617 15.9384 3.14942C15.8411 2.91267 15.6978 2.6976 15.5168 2.51667C15.1523 2.15096 14.6581 1.94401 14.1418 1.94083H11.5668C11.4846 1.94083 11.4031 1.92461 11.3272 1.8931C11.2513 1.86159 11.1823 1.8154 11.1242 1.75719C11.0662 1.69897 11.0202 1.62988 10.9889 1.55386C10.9576 1.47783 10.9416 1.39638 10.9418 1.31417C10.942 1.14832 11.0079 0.989304 11.125 0.871877C11.2421 0.754449 11.4009 0.688161 11.5668 0.6875H14.1418C14.9897 0.69141 15.8017 1.03087 16.4001 1.63167C16.6982 1.9282 16.9343 2.28113 17.0945 2.66987C17.2548 3.05861 17.336 3.47537 17.3334 3.89583V5.56667C17.333 5.73237 17.267 5.89117 17.1499 6.00842C17.0329 6.12567 16.8741 6.19184 16.7084 6.1925ZM14.1418 17.3542H11.5668C11.4846 17.3542 11.4031 17.3379 11.3272 17.3064C11.2513 17.2749 11.1823 17.2287 11.1242 17.1705C11.0662 17.1123 11.0202 17.0432 10.9889 16.9672C10.9576 16.8912 10.9416 16.8097 10.9418 16.7275C10.942 16.5617 11.0079 16.4026 11.125 16.2852C11.2421 16.1678 11.4009 16.1015 11.5668 16.1008H14.1418C14.5265 16.1022 14.903 15.9888 15.2229 15.775C15.5428 15.5612 15.7917 15.2569 15.9376 14.9008C16.0351 14.6642 16.0843 14.41 16.0834 14.1542V12.4333C16.0837 12.2675 16.1495 12.1085 16.2666 11.991C16.3838 11.8736 16.5426 11.8073 16.7084 11.8067C16.7907 11.8067 16.8721 11.8229 16.948 11.8544C17.0239 11.8859 17.0929 11.9321 17.151 11.9903C17.209 12.0485 17.255 12.1176 17.2863 12.1936C17.3177 12.2697 17.3337 12.3511 17.3334 12.4333V14.1542C17.3344 14.5744 17.2525 14.9908 17.0925 15.3794C16.9325 15.7681 16.6975 16.1214 16.4009 16.4192C16.1046 16.7162 15.7524 16.9518 15.3647 17.1122C14.977 17.2727 14.5614 17.3549 14.1418 17.3542ZM6.43344 17.3542H3.85844C3.4387 17.3558 3.02282 17.274 2.63498 17.1135C2.24714 16.953 1.89508 16.717 1.59927 16.4192C1.30234 16.1216 1.06711 15.7684 0.907089 15.3797C0.747064 14.991 0.665395 14.5745 0.666772 14.1542V12.4333C0.66699 12.2675 0.732856 12.1085 0.849971 11.991C0.967086 11.8736 1.12593 11.8073 1.29177 11.8067C1.37399 11.8067 1.4554 11.8229 1.53133 11.8544C1.60727 11.8859 1.67625 11.9321 1.7343 11.9903C1.79236 12.0485 1.83836 12.1176 1.86968 12.1936C1.90099 12.2697 1.91699 12.3511 1.91677 12.4333V14.1542C1.9153 14.5393 2.02836 14.9161 2.24159 15.2367C2.45483 15.5574 2.75859 15.8074 3.11427 15.955C3.35014 16.0527 3.60315 16.1023 3.85844 16.1008H6.43344C6.51566 16.1008 6.59706 16.1171 6.673 16.1486C6.74894 16.1801 6.81791 16.2263 6.87597 16.2845C6.93403 16.3427 6.98003 16.4118 7.01134 16.4878C7.04265 16.5638 7.05866 16.6453 7.05844 16.7275C7.05822 16.8933 6.99235 17.0524 6.87524 17.1698C6.75812 17.2872 6.59928 17.3535 6.43344 17.3542ZM1.29177 6.1925C1.20963 6.1925 1.12828 6.17631 1.0524 6.14485C0.976519 6.11338 0.907582 6.06727 0.849535 6.00915C0.791487 5.95102 0.745468 5.88202 0.714107 5.8061C0.682747 5.73018 0.666662 5.64881 0.666772 5.56667V3.89583C0.665157 3.4755 0.746801 3.05902 0.906994 2.67041C1.06719 2.2818 1.30276 1.92876 1.6001 1.63167C2.19853 1.03087 3.01047 0.69141 3.85844 0.6875H6.43344C6.51566 0.6875 6.59706 0.703721 6.673 0.735234C6.74894 0.766748 6.81791 0.812934 6.87597 0.871147C6.93403 0.92936 6.98003 0.998457 7.01134 1.07448C7.04265 1.1505 7.05866 1.23195 7.05844 1.31417C7.05822 1.48001 6.99235 1.63903 6.87524 1.75646C6.75812 1.87388 6.59928 1.94017 6.43344 1.94083H3.85844C3.47333 1.94327 3.09749 2.05919 2.77792 2.27412C2.45836 2.48904 2.20925 2.79341 2.06177 3.14917C1.96404 3.38587 1.91474 3.63976 1.91677 3.89583V5.56667C1.91633 5.73237 1.85037 5.89117 1.73328 6.00842C1.61619 6.12567 1.45747 6.19184 1.29177 6.1925Z" fill="#5925DC"/>
</svg>
