<svg width="18" height="20" viewBox="0 0 18 20" fill="none" xmlns="http://www.w3.org/2000/svg">
<path fill-rule="evenodd" clip-rule="evenodd" d="M15.4167 11.4539V8.16671C15.4167 5.21779 13.4138 2.73362 10.7004 1.98654C10.4318 1.31004 9.7755 0.833374 9 0.833374C8.2245 0.833374 7.56817 1.31004 7.29958 1.98654C4.58625 2.73454 2.58333 5.21779 2.58333 8.16671V11.4539L1.01858 13.0186C0.84625 13.19 0.75 13.4229 0.75 13.6667V15.5C0.75 16.007 1.15975 16.4167 1.66667 16.4167H16.3333C16.8402 16.4167 17.25 16.007 17.25 15.5V13.6667C17.25 13.4229 17.1537 13.19 16.9814 13.0186L15.4167 11.4539ZM15.4163 14.5834H2.58301V14.0462L4.14776 12.4815C4.32009 12.31 4.41634 12.0772 4.41634 11.8334V8.16671C4.41634 5.63946 6.47242 3.58337 8.99967 3.58337C11.5269 3.58337 13.583 5.63946 13.583 8.16671V11.8334C13.583 12.0772 13.6793 12.31 13.8516 12.4815L15.4163 14.0462V14.5834ZM9.00016 19.1667C10.2019 19.1667 11.2066 18.4022 11.5833 17.3334H6.41699C6.79374 18.4022 7.79841 19.1667 9.00016 19.1667Z" fill="#878A99"/>
</svg>
