<svg width="16" height="17" viewBox="0 0 16 17" fill="none" xmlns="http://www.w3.org/2000/svg">
<path d="M14.0623 10.9L14.9638 11.4407C15.0194 11.474 15.0654 11.5212 15.0974 11.5776C15.1293 11.634 15.1461 11.6977 15.1461 11.7625C15.1461 11.8273 15.1293 11.891 15.0974 11.9474C15.0654 12.0038 15.0194 12.0509 14.9638 12.0842L8.38626 16.0307C8.26962 16.1008 8.1361 16.1379 8.00001 16.1379C7.86393 16.1379 7.73041 16.1008 7.61376 16.0307L1.03626 12.0842C0.980648 12.0509 0.934612 12.0038 0.902648 11.9474C0.870684 11.891 0.853882 11.8273 0.853882 11.7625C0.853882 11.6977 0.870684 11.634 0.902648 11.5776C0.934612 11.5212 0.980648 11.474 1.03626 11.4407L1.93776 10.9L8.00001 14.5375L14.0623 10.9V10.9ZM14.0623 7.37499L14.9638 7.91574C15.0194 7.94904 15.0654 7.99618 15.0974 8.05257C15.1293 8.10896 15.1461 8.17267 15.1461 8.23749C15.1461 8.30231 15.1293 8.36602 15.0974 8.42241C15.0654 8.4788 15.0194 8.52595 14.9638 8.55924L8.00001 12.7375L1.03626 8.55924C0.980648 8.52595 0.934612 8.4788 0.902648 8.42241C0.870684 8.36602 0.853882 8.30231 0.853882 8.23749C0.853882 8.17267 0.870684 8.10896 0.902648 8.05257C0.934612 7.99618 0.980648 7.94904 1.03626 7.91574L1.93776 7.37499L8.00001 11.0125L14.0623 7.37499ZM8.38551 0.481741L14.9638 4.42824C15.0194 4.46154 15.0654 4.50868 15.0974 4.56507C15.1293 4.62146 15.1461 4.68517 15.1461 4.74999C15.1461 4.81481 15.1293 4.87852 15.0974 4.93491C15.0654 4.9913 15.0194 5.03845 14.9638 5.07174L8.00001 9.24999L1.03626 5.07174C0.980648 5.03845 0.934612 4.9913 0.902648 4.93491C0.870684 4.87852 0.853882 4.81481 0.853882 4.74999C0.853882 4.68517 0.870684 4.62146 0.902648 4.56507C0.934612 4.50868 0.980648 4.46154 1.03626 4.42824L7.61376 0.481741C7.73041 0.411659 7.86393 0.374634 8.00001 0.374634C8.1361 0.374634 8.26962 0.411659 8.38626 0.481741H8.38551ZM8.00001 1.99899L3.41526 4.74999L8.00001 7.50099L12.5848 4.74999L8.00001 1.99899Z" fill="#BDB4FE"/>
</svg>
