<svg width="12" height="16" viewBox="0 0 12 16" fill="none" xmlns="http://www.w3.org/2000/svg">
<path d="M6 3.75C7.5913 3.75 9.11742 4.38214 10.2426 5.50736C11.3679 6.63258 12 8.1587 12 9.75C12 11.3413 11.3679 12.8674 10.2426 13.9926C9.11742 15.1179 7.5913 15.75 6 15.75C4.4087 15.75 2.88258 15.1179 1.75736 13.9926C0.632141 12.8674 0 11.3413 0 9.75C0 8.1587 0.632141 6.63258 1.75736 5.50736C2.88258 4.38214 4.4087 3.75 6 3.75V3.75ZM6 5.25C4.80653 5.25 3.66193 5.72411 2.81802 6.56802C1.97411 7.41194 1.5 8.55653 1.5 9.75C1.5 10.9435 1.97411 12.0881 2.81802 12.932C3.66193 13.7759 4.80653 14.25 6 14.25C7.19347 14.25 8.33807 13.7759 9.18198 12.932C10.0259 12.0881 10.5 10.9435 10.5 9.75C10.5 8.55653 10.0259 7.41194 9.18198 6.56802C8.33807 5.72411 7.19347 5.25 6 5.25ZM6 6.375L6.99225 8.385L9.21 8.7075L7.605 10.2713L7.98375 12.4808L6 11.4375L4.01625 12.48L4.395 10.2713L2.79 8.70675L5.00775 8.38425L6 6.375ZM10.5 2.35444e-06V2.25L9.47775 3.1035C8.62946 2.65844 7.7033 2.38113 6.75 2.28675V2.35444e-06H10.5ZM5.25 -0.000747681V2.28675C4.29701 2.38099 3.37112 2.65804 2.523 3.10275L1.5 2.25V2.35444e-06L5.25 -0.000747681Z" fill="#BDB4FE"/>
</svg>
