<svg width="14" height="15" viewBox="0 0 14 15" fill="none" xmlns="http://www.w3.org/2000/svg">
<path d="M13.75 4.5V14.2448C13.7507 14.3432 13.732 14.4409 13.6949 14.5322C13.6579 14.6234 13.6032 14.7065 13.534 14.7766C13.4649 14.8468 13.3826 14.9026 13.2919 14.9409C13.2011 14.9792 13.1037 14.9993 13.0052 15H0.99475C0.79736 15 0.608043 14.9216 0.468397 14.7821C0.328751 14.6426 0.250199 14.4534 0.25 14.256V0.744C0.25 0.34125 0.58675 0 1.0015 0H9.24775L13.75 4.5ZM12.25 5.25H8.5V1.5H1.75V13.5H12.25V5.25Z" fill="#BDB4FE"/>
</svg>
