<svg width="25" height="34" viewBox="0 0 25 34" fill="none" xmlns="http://www.w3.org/2000/svg">
<path d="M0.293213 22.6484C0.371338 22.6615 0.735921 22.7786 1.38696 23C2.05103 23.2083 2.85181 23.4492 3.78931 23.7227C4.72681 23.9831 5.66431 24.2174 6.60181 24.4258C7.55233 24.6211 8.35962 24.7188 9.02368 24.7188C9.5966 24.7188 10.0653 24.6341 10.4299 24.4648C10.7945 24.2956 10.9768 23.9831 10.9768 23.5273C10.9768 23.0326 10.7164 22.5833 10.1956 22.1797C9.67472 21.776 9.00415 21.3594 8.18384 20.9297C7.37655 20.5 6.51066 20.0117 5.58618 19.4648C4.67472 18.918 3.80884 18.2604 2.98853 17.4922C2.18123 16.724 1.51717 15.806 0.996338 14.7383C0.475505 13.6576 0.215088 12.3685 0.215088 10.8711C0.215088 9.03516 0.599202 7.48568 1.36743 6.22266C2.13566 4.94661 3.16431 3.92448 4.45337 3.15625C5.75545 2.375 7.21379 1.80859 8.82837 1.45703C10.456 1.10547 12.1226 0.929688 13.8284 0.929688C15.2737 0.929688 16.6409 1.00781 17.9299 1.16406C19.219 1.32031 20.3062 1.48958 21.1917 1.67188C22.0901 1.85417 22.6565 1.97786 22.8909 2.04297V11.0078C22.8909 11.0078 22.6174 10.9492 22.0706 10.832C21.5367 10.7148 20.8596 10.5846 20.0393 10.4414C19.232 10.2982 18.3922 10.168 17.5198 10.0508C16.6604 9.93359 15.9052 9.875 15.2542 9.875C14.6552 9.875 14.206 9.97917 13.9065 10.1875C13.607 10.3958 13.4573 10.6432 13.4573 10.9297C13.4573 11.1641 13.5875 11.4245 13.8479 11.7109C14.1083 11.9844 14.4208 12.1992 14.7854 12.3555C16.1526 12.9544 17.4417 13.5664 18.6526 14.1914C19.8635 14.8164 20.9312 15.5391 21.8557 16.3594C22.7802 17.1797 23.5028 18.1823 24.0237 19.3672C24.5575 20.5391 24.8245 21.9779 24.8245 23.6836C24.8245 25.7148 24.3101 27.4857 23.2815 28.9961C22.2659 30.5065 20.7945 31.6784 18.8674 32.5117C16.9534 33.3451 14.6422 33.7617 11.9338 33.7617C9.60311 33.7617 7.68254 33.651 6.17212 33.4297C4.6617 33.2083 3.47681 32.9609 2.61743 32.6875C1.75806 32.401 1.15259 32.1471 0.801025 31.9258C0.462484 31.7044 0.293213 31.5938 0.293213 31.5938V22.6484Z" fill="#EBE9FE"/>
</svg>
