<svg width="24" height="24" viewBox="0 0 24 24" fill="none" xmlns="http://www.w3.org/2000/svg">
<rect width="24" height="24" fill="white" fill-opacity="0.01"/>
<mask id="mask0_1_2385" style="mask-type:luminance" maskUnits="userSpaceOnUse" x="0" y="0" width="24" height="24">
<rect width="24" height="24" fill="white"/>
</mask>
<g mask="url(#mask0_1_2385)">
<path fill-rule="evenodd" clip-rule="evenodd" d="M6.99316 12C6.99316 14.761 9.23916 17.007 12.0002 17.007C14.7612 17.007 17.0072 14.761 17.0072 12C17.0072 9.23904 14.7612 6.99304 12.0002 6.99304C9.23916 6.99304 6.99316 9.23904 6.99316 12ZM12.0002 8.99304C13.6582 8.99304 15.0072 10.342 15.0072 12C15.0072 13.658 13.6582 15.007 12.0002 15.007C10.3422 15.007 8.99316 13.658 8.99316 12C8.99316 10.342 10.3422 8.99304 12.0002 8.99304ZM10.998 19H12.998V22H10.998V19ZM10.998 2H12.998V5H10.998V2ZM1.99805 11H4.99805V13H1.99805V11ZM18.998 11H21.998V13H18.998V11ZM4.21875 18.363L6.33875 16.241L7.75375 17.655L5.63375 19.777L4.21875 18.363ZM16.2402 6.34405L18.3622 4.22205L19.7762 5.63605L17.6542 7.75805L16.2402 6.34405ZM6.34173 7.75902L4.21973 5.63702L5.63473 4.22302L7.75473 6.34502L6.34173 7.75902ZM19.7762 18.3639L18.3622 19.7779L16.2402 17.6559L17.6542 16.2419L19.7762 18.3639Z" fill="#878A99"/>
</g>
</svg>
