<svg width="14" height="14" viewBox="0 0 14 14" fill="none" xmlns="http://www.w3.org/2000/svg">
<path d="M7.32437 2.45944C6.72977 2.45944 6.24329 2.94593 6.24329 3.54052C6.24329 4.13512 6.72977 4.6216 7.32437 4.6216C7.91896 4.6216 8.40545 4.13512 8.40545 3.54052C8.40545 2.94593 7.91896 2.45944 7.32437 2.45944ZM7.32437 10.027C6.72977 10.027 6.24329 10.5135 6.24329 11.1081C6.24329 11.7027 6.72977 12.1892 7.32437 12.1892C7.91896 12.1892 8.40545 11.7027 8.40545 11.1081C8.40545 10.5135 7.91896 10.027 7.32437 10.027ZM7.32437 6.24323C6.72977 6.24323 6.24329 6.72971 6.24329 7.32431C6.24329 7.9189 6.72977 8.40539 7.32437 8.40539C7.91896 8.40539 8.40545 7.9189 8.40545 7.32431C8.40545 6.72971 7.91896 6.24323 7.32437 6.24323Z" fill="#495057"/>
</svg>
